<svg width="162" height="24" viewBox="0 0 162 24" fill="none" xmlns="http://www.w3.org/2000/svg">
<path d="M159.009 0L159.97 1.66699L158.905 3.513H161.035L162.001 5.17999H156.013L159.009 0Z" fill="#FF7300"/>
<path d="M151.524 5.181L152.49 3.51398H154.62L153.555 1.668L154.516 0.000976562L157.516 5.18198L151.524 5.181Z" fill="#FF7300"/>
<path d="M157.829 9.06772L156.764 7.22171L155.694 9.06772H153.768L156.768 3.88672L159.759 9.06772H157.829Z" fill="black"/>
<path d="M21.953 23.4408V19.5638H31.738C32.1696 19.5638 32.5836 19.3923 32.8888 19.0871C33.194 18.7819 33.3655 18.3679 33.3655 17.9363C33.3655 17.5047 33.194 17.0907 32.8888 16.7855C32.5836 16.4803 32.1696 16.3088 31.738 16.3088H27.458C25.9981 16.3088 24.598 15.7289 23.5657 14.6966C22.5334 13.6643 21.9535 12.2642 21.9535 10.8043C21.9535 9.34441 22.5334 7.94431 23.5657 6.91202C24.598 5.87972 25.9981 5.2998 27.458 5.2998H37.243V9.17679H27.458C27.2445 9.17489 27.0327 9.21576 26.8352 9.297C26.6377 9.37823 26.4584 9.49821 26.308 9.64981C26.0789 9.87708 25.9226 10.1673 25.8589 10.4837C25.7952 10.8 25.827 11.1281 25.9503 11.4264C26.0736 11.7246 26.2828 11.9794 26.5512 12.1584C26.8197 12.3375 27.1353 12.4326 27.458 12.4318H31.738C33.1979 12.4318 34.598 13.0117 35.6303 14.044C36.6626 15.0763 37.2425 16.4764 37.2425 17.9363C37.2425 19.3962 36.6626 20.7963 35.6303 21.8286C34.598 22.8609 33.1979 23.4408 31.738 23.4408H21.953Z" fill="black"/>
<path d="M47.739 23.4413C46.5299 23.4697 45.3273 23.2561 44.202 22.813C43.0767 22.3699 42.0513 21.7063 41.1862 20.8613C40.321 20.0162 39.6335 19.0067 39.1642 17.8921C38.6948 16.7774 38.453 15.5803 38.453 14.3708C38.453 13.1614 38.6948 11.9642 39.1642 10.8496C39.6335 9.735 40.321 8.72548 41.1862 7.8804C42.0513 7.03532 43.0767 6.37172 44.202 5.92865C45.3273 5.48557 46.5299 5.27196 47.739 5.30035H55.384V9.17334H47.739C46.4065 9.24002 45.1507 9.8163 44.2312 10.783C43.3117 11.7496 42.7989 13.0327 42.7989 14.3668C42.7989 15.701 43.3117 16.9841 44.2312 17.9507C45.1507 18.9174 46.4065 19.4936 47.739 19.5603H51.511V16.3053H48.659V12.4483H55.39V23.4573L47.739 23.4413Z" fill="black"/>
<path d="M92.378 23.4408L83.628 14.7708V23.4408H79.751V5.29982H89.536C90.6263 5.29707 91.6928 5.61844 92.6 6.2231C93.5073 6.82776 94.2144 7.68842 94.6315 8.69579C95.0486 9.70315 95.1569 10.8118 94.9426 11.8808C94.7283 12.9498 94.2011 13.931 93.428 14.6998C92.975 15.1555 92.4504 15.5339 91.875 15.8198L90.72 16.3818L97.797 23.4438L92.378 23.4408ZM89.536 12.4518C89.9677 12.4518 90.3816 12.2804 90.6868 11.9751C90.992 11.6699 91.1635 11.256 91.1635 10.8243C91.1635 10.3927 90.992 9.97873 90.6868 9.67351C90.3816 9.36829 89.9677 9.19683 89.536 9.19683H83.628V12.4518H89.536Z" fill="black"/>
<path d="M99.236 23.4413V5.30133H106.881C108.09 5.27294 109.293 5.48658 110.418 5.92965C111.543 6.37273 112.569 7.03632 113.434 7.88141C114.299 8.72649 114.986 9.736 115.456 10.8506C115.925 11.9652 116.167 13.1624 116.167 14.3718C116.167 15.5812 115.925 16.7785 115.456 17.8931C114.986 19.0077 114.299 20.0172 113.434 20.8623C112.569 21.7074 111.543 22.3709 110.418 22.814C109.293 23.2571 108.09 23.4707 106.881 23.4424L99.236 23.4413ZM106.881 19.5643C108.213 19.4976 109.469 18.9214 110.389 17.9547C111.308 16.988 111.821 15.705 111.821 14.3708C111.821 13.0367 111.308 11.7536 110.389 10.787C109.469 9.82029 108.213 9.24402 106.881 9.17734H103.113V19.5643H106.881Z" fill="black"/>
<path d="M142.863 23.4414C140.767 23.4407 138.735 22.7133 137.115 21.383C135.495 20.0526 134.386 18.2018 133.977 16.1456C133.568 14.0894 133.885 11.9551 134.873 10.1062C135.861 8.25728 137.46 6.80818 139.397 6.0057C141.334 5.20322 143.489 5.09698 145.495 5.7051C147.501 6.31322 149.235 7.59808 150.4 9.34081C151.565 11.0835 152.09 13.1764 151.886 15.2628C151.681 17.3492 150.76 19.3002 149.278 20.7834C148.45 21.6454 147.453 22.3265 146.349 22.784C145.245 23.2414 144.058 23.4653 142.863 23.4414ZM142.863 9.17742C141.66 9.17536 140.493 9.59078 139.561 10.3528C138.63 11.1149 137.992 12.1764 137.755 13.3564C137.519 14.5364 137.699 15.7618 138.266 16.8238C138.832 17.8857 139.749 18.7184 140.86 19.1799C141.971 19.6414 143.209 19.7031 144.36 19.3545C145.512 19.0058 146.508 18.2685 147.177 17.2682C147.846 16.2679 148.147 15.0665 148.029 13.8688C147.911 12.6711 147.382 11.5514 146.531 10.7004C146.055 10.2115 145.484 9.82435 144.853 9.56255C144.223 9.30076 143.546 9.16973 142.863 9.17742Z" fill="black"/>
<path d="M0 23.4408H4.33499L10.477 12.8048L16.614 23.4408H20.944L10.477 5.2998L0 23.4408Z" fill="black"/>
<path d="M57.066 23.4408H61.401L67.538 12.8048L73.675 23.4408H78.006L67.537 5.2998L57.066 23.4408Z" fill="black"/>
<path d="M117.625 23.3856V5.30957H132.78V9.15158H121.492V12.4766H129.958V16.2296H121.492V19.5446H132.78V23.3866L117.625 23.3856Z" fill="black"/>
</svg>
